HIERARCHY
ROOT Hips
{
	OFFSET 0.00000 0.00000 0.00000
	CHANNELS 6 Xposition Yposition Zposition Zrotation Yrotation Xrotation 
	JOINT LHipJoint
	{
		OFFSET 0 0 0
		CHANNELS 3 Zrotation Yrotation Xrotation
		JOINT LeftHip
		{
			OFFSET 1.62329 -1.80800 0.67318
			CHANNELS 3 Zrotation Yrotation Xrotation
			JOINT LeftKnee
			{
				OFFSET 2.57139 -7.06484 0.00000
				CHANNELS 3 Zrotation Yrotation Xrotation
				JOINT LeftAnkle
				{
					OFFSET 2.52017 -6.92413 0.00000
					CHANNELS 3 Zrotation Yrotation Xrotation
					JOINT LeftToe
					{
						OFFSET 0.23295 -0.64001 2.10214
						CHANNELS 3 Zrotation Yrotation Xrotation
						End Site
						{
							OFFSET 0.00000 -0.00000 1.10139
						}
					}
				}
			}
		}
	}
	JOINT RHipJoint
	{
		OFFSET 0 0 0
		CHANNELS 3 Zrotation Yrotation Xrotation
		JOINT RightHip
		{
			OFFSET -1.48061 -1.80800 0.67318
			CHANNELS 3 Zrotation Yrotation Xrotation
			JOINT RightKnee
			{
				OFFSET -2.63258 -7.23296 0.00000
				CHANNELS 3 Zrotation Yrotation Xrotation
				JOINT RightAnkle
				{
					OFFSET -2.54779 -7.00000 0.00000
					CHANNELS 3 Zrotation Yrotation Xrotation
					JOINT RightToe
					{
						OFFSET -0.23067 -0.63376 2.12161
						CHANNELS 3 Zrotation Yrotation Xrotation
						End Site
						{
							OFFSET -0.00000 -0.00000 1.11000
						}
					}
				}
			}
		}
	}
	JOINT lowerback
	{
		OFFSET 0 0 0
		CHANNELS 3 Zrotation Yrotation Xrotation
		JOINT Chest
		{
			OFFSET -0.02108 2.07573 -0.16981
			CHANNELS 3 Zrotation Yrotation Xrotation
			JOINT Chest2
			{
				OFFSET 0.05070 2.08439 -0.03141
				CHANNELS 3 Zrotation Yrotation Xrotation
				JOINT lowerneck
				{
					OFFSET 0 0 0
					CHANNELS 3 Zrotation Yrotation Xrotation
					JOINT Neck
					{
						OFFSET -0.10731 1.60408 0.31370
						CHANNELS 3 Zrotation Yrotation Xrotation
						JOINT Head
						{
							OFFSET 0.08411 1.65679 -0.30822
							CHANNELS 3 Zrotation Yrotation Xrotation
							End Site
							{
								OFFSET 0.03911 1.69149 -0.14146
							}
						}
					}
				}
				JOINT LeftCollar
				{
					OFFSET 0 0 0
					CHANNELS 3 Zrotation Yrotation Xrotation
					JOINT LeftShoulder
					{
						OFFSET 3.52315 0.73219 -0.54694
CHANNELS 3 Zrotation Xrotation Yrotation
						JOINT LeftElbow
						{
OFFSET 0 -5.324620 -0.000000
CHANNELS 3 Zrotation Xrotation Yrotation
							JOINT LeftWrist
							{
OFFSET 0 -3.484020 -0.000000
CHANNELS 3 Zrotation Xrotation Yrotation
								JOINT lhand
								{
									OFFSET 0 0 0
CHANNELS 3 Zrotation Xrotation Yrotation
									JOINT LFingers
									{
OFFSET 0 -0.572480 -0.000000
CHANNELS 3 Zrotation Xrotation Yrotation
										End Site
										{
OFFSET 0 -0.461540 -0.000000
										}
									}
								}
								JOINT LThumb
								{
OFFSET 0 0.000000 0.000000
CHANNELS 3 Zrotation Xrotation Yrotation
									End Site
									{
OFFSET 0 -0.468590 0.468590
									}
								}
							}
						}
					}
				}
				JOINT RightCollar
				{
					OFFSET 0 0 0
					CHANNELS 3 Zrotation Yrotation Xrotation
					JOINT RightShoulder
					{
						OFFSET -3.41766 0.93592 -0.10019
CHANNELS 3 Zrotation Xrotation Yrotation
						JOINT RightElbow
						{
OFFSET 0 -5.335890 -0.000000
CHANNELS 3 Zrotation Xrotation Yrotation
							JOINT RightWrist
							{
OFFSET 0 -3.641340 -0.000000
CHANNELS 3 Zrotation Xrotation Yrotation
								JOINT rhand
								{
									OFFSET 0 0 0
CHANNELS 3 Zrotation Xrotation Yrotation
									JOINT RFingers
									{
OFFSET 0 -0.734810 -0.000000
CHANNELS 3 Zrotation Xrotation Yrotation
										End Site
										{
OFFSET 0 -0.592420 -0.000000
										}
									}
								}
								JOINT RThumb
								{
OFFSET 0 0.000000 0.000000
CHANNELS 3 Zrotation Xrotation Yrotation
									End Site
									{
OFFSET 0 -0.601470 0.601470
									}
								}
							}
						}
					}
				}
			}
		}
	}
}
MOTION
Frames: 6
Frame Time: 0.008333333333333333
-2.932064 17.416918 3.506326 6.676595 0.107207 5.347240 0.000000 0.000000 0.000000 -9.660824 -3.924520 -2.756020 0.532364 4.675102 12.984188 -0.106841 6.691658 -6.023083 3.408361 -11.328440 -33.395749 0.000000 0.000000 0.000000 -0.147349 11.428784 -14.405893 -3.607198 -11.618440 34.395187 -1.304834 -0.987809 -21.968717 -0.365480 3.882918 -10.747685 4.706362 2.450971 9.839250 4.548989 3.928262 1.673941 1.588402 1.906276 -3.775031 -10.150778 -6.056756 -35.093812 3.813844 -4.260066 15.789680 2.217170 -2.065515 10.968149 0.000000 0.000000 0.000000 7.588935 10.700072 -19.191516 34.207695 -44.237988 14.257783 21.144649 12.066267 -23.708048 0.000000 0.000000 0.000000 -7.125000 0.000000 0.000000 -8.679301 54.981894 2.144459 0.000000 0.000000 0.000000 -65.774675 -32.937384 45.004332 -40.504739 -48.366108 -18.815594 -67.454462 56.437379 0.666282 0.000000 0.000000 0.000000 7.125000 0.000000 0.000000 -31.207277 30.380449 -12.943227
-2.339992 17.329516 3.522774 6.089723 0.427726 4.651292 0.000000 0.000000 0.000000 -11.747489 -2.437687 -5.340145 1.027281 6.446797 18.086609 0.127160 6.172002 -11.614738 2.661426 -10.125509 -29.384262 0.000000 0.000000 0.000000 -1.239547 12.121349 -12.450305 -3.407501 -11.327082 33.391066 -1.285736 -2.592952 -22.494452 -0.490800 4.490935 -12.462143 4.101331 2.324747 9.991030 4.158684 3.705391 1.502040 1.535684 1.797482 -4.051675 -9.636890 -5.128143 -33.545702 4.053607 -3.430625 12.379702 2.379597 -1.579774 9.405498 0.000000 0.000000 0.000000 8.039340 9.879108 -19.627490 31.068615 -41.791789 12.115610 21.285758 11.356620 -19.956826 0.000000 0.000000 0.000000 -7.125000 0.000000 0.000000 -7.202008 51.131088 1.094409 0.000000 0.000000 0.000000 -78.722889 -35.147268 36.273505 -42.139727 -49.287498 -20.046452 -67.302029 61.825763 3.292438 0.000000 0.000000 0.000000 7.125000 0.000000 0.000000 -33.314363 36.122586 -8.492936
-1.748971 17.327799 3.534958 5.117173 0.288210 3.786280 0.000000 0.000000 0.000000 -12.760298 -2.589604 -6.394624 1.518825 7.782063 22.054129 0.353090 5.272883 -14.407287 2.590013 -9.999751 -28.975938 0.000000 0.000000 0.000000 -1.643327 12.786267 -9.791408 -2.941769 -10.600064 30.942614 -1.083344 -5.090915 -22.119999 -0.472218 4.405990 -12.222030 4.014224 2.406496 10.209103 3.612398 3.804163 1.337054 0.988765 1.838397 -4.312660 -8.966360 -4.799852 -32.435690 5.026118 -3.526927 9.343294 2.608453 -1.442262 8.173501 0.000000 0.000000 0.000000 8.879510 8.992373 -19.952023 28.524981 -39.594771 10.456772 18.205918 12.495370 -24.939773 0.000000 0.000000 0.000000 -7.125000 0.000000 0.000000 -12.263021 55.641229 3.238563 0.000000 0.000000 0.000000 -96.183130 -37.826038 19.103193 -44.802028 -50.671169 -22.085540 -70.379571 44.741055 -3.095583 0.000000 0.000000 0.000000 7.125000 0.000000 0.000000 -30.258753 20.857589 -20.512884
-1.235109 17.420558 3.550989 4.333825 -0.242535 3.520312 0.000000 0.000000 0.000000 -13.673920 -0.552383 -7.415004 1.689446 8.186867 23.283093 0.465450 3.577807 -14.697381 2.294278 -9.452838 -27.223233 0.000000 0.000000 0.000000 -1.837879 12.402812 -8.542271 -2.458813 -9.762319 28.210596 -0.879572 -7.690997 -22.110785 -0.004171 0.397348 -1.091729 3.870667 2.771429 10.477327 2.598195 4.269322 0.750559 -0.078979 2.044002 -5.003635 -8.263333 -4.808909 -32.232557 6.229441 -4.019345 8.189570 2.846351 -1.501357 7.801232 0.000000 0.000000 0.000000 10.086455 9.275658 -19.567718 28.213562 -39.312102 10.258706 18.862990 13.275067 -23.968994 0.000000 0.000000 0.000000 -7.125000 0.000000 0.000000 -11.136766 54.798011 2.706577 0.000000 0.000000 0.000000 -114.168753 -37.849390 -2.051847 -42.941727 -49.717438 -20.656828 -70.989550 38.576397 -3.561409 0.000000 0.000000 0.000000 7.125000 0.000000 0.000000 -30.264075 19.398325 -21.728362
-0.816081 17.573385 3.570827 3.009823 0.509071 3.836584 0.000000 0.000000 0.000000 -13.614269 0.519261 -8.475213 1.674171 8.151470 23.175163 0.507599 1.772087 -14.218005 2.076139 -9.022799 -25.866595 0.000000 0.000000 0.000000 -0.749952 11.811745 -7.070371 -1.921795 -8.701138 24.864925 -0.411992 -12.982318 -22.830227 -0.074925 -1.749165 4.813439 4.303371 2.867288 10.226491 1.664554 4.422081 -0.084862 -1.323253 2.075317 -5.630529 -8.106697 -5.332175 -31.927733 7.457838 -4.998210 7.939118 3.091712 -1.824057 7.800505 0.000000 0.000000 0.000000 11.095489 9.757016 -18.248690 29.315411 -40.299303 10.964106 21.245259 12.839931 -21.121444 0.000000 0.000000 0.000000 -7.125000 0.000000 0.000000 -7.630406 52.330556 1.397499 0.000000 0.000000 0.000000 -126.882310 -37.738091 -25.101070 -35.469582 -45.141203 -15.146371 -69.771396 54.180590 3.028327 0.000000 0.000000 0.000000 7.125000 0.000000 0.000000 -35.136007 35.965273 -9.289891
-0.516014 17.654747 3.538702 1.112712 1.943827 4.201995 0.000000 0.000000 0.000000 -12.568608 0.045096 -9.172305 1.686651 8.180232 23.262910 0.575870 0.933948 -14.702904 1.783299 -8.399137 -23.933209 0.000000 0.000000 0.000000 1.656606 9.414396 -7.948140 -1.919381 -8.696027 24.848962 -0.243741 -13.728951 -22.109760 -0.759084 -5.564024 15.524452 4.752344 3.078014 10.216638 0.934767 4.724577 -0.358839 -2.383605 2.192664 -5.800764 -8.100458 -6.187295 -32.971879 8.476369 -6.190389 7.630437 3.251781 -2.243954 7.979105 0.000000 0.000000 0.000000 12.279197 8.393051 -17.594021 30.671494 -41.461786 11.851769 22.601075 12.018348 -19.579700 0.000000 0.000000 0.000000 -7.125000 0.000000 0.000000 -5.804074 50.956643 0.868854 0.000000 0.000000 0.000000 -136.102878 -35.763965 -45.737105 -28.484415 -39.557184 -10.431217 -68.667765 54.377920 3.995392 0.000000 0.000000 0.000000 7.125000 0.000000 0.000000 -35.207204 37.928852 -7.256253
